<mxfile host="app.diagrams.net" modified="2023-05-20T13:54:49.816Z" agent="Mozilla/5.0 (Windows NT 10.0; Win64; x64) AppleWebKit/537.36 (KHTML, like Gecko) Chrome/113.0.0.0 Safari/537.36 Edg/113.0.1774.50" version="21.3.2" etag="2W52OUiCjaRjp2FazHsu" type="github">
  <diagram name="Page-1" id="T1mvTjYlXn0A5x7rI9n5">
    <mxGraphModel>
      <root>
        <mxCell id="0" />
        <mxCell id="1" parent="0" />
      </root>
    </mxGraphModel>
  </diagram>
</mxfile>
